<svg xmlns="http://www.w3.org/2000/svg" width="223" height="48" viewBox="0 0 1110 239" fill="none"><path d="M93.697 3.62598L13.6147 49.5818C9.47221 51.9639 6.03346 55.387 3.64371 59.5075C1.25395 63.6279 -0.00268232 68.3006 4.29885e-06 73.0562V164.952C0.00229945 169.71 1.26458 174.384 3.66008 178.505C6.05559 182.625 9.50001 186.047 13.6474 188.426L93.7298 234.365C97.878 236.749 102.585 238.004 107.377 238.004C112.169 238.004 116.876 236.749 121.025 234.365L201.107 188.426C205.254 186.047 208.699 182.625 211.094 178.505C213.49 174.384 214.752 169.71 214.754 164.952V73.0562C214.754 68.2974 213.492 63.6226 211.096 59.5019C208.701 55.3811 205.255 51.9598 201.107 49.5818L120.992 3.62598C116.841 1.25039 112.135 0 107.344 0C102.554 0 97.848 1.25039 93.697 3.62598Z" fill="#87CCE8"></path><path d="M144.552 53.4446C133.125 46.7963 119.546 44.8169 106.678 47.9237C93.8108 51.0305 82.6602 58.9807 75.5777 70.0981C73.3659 73.4679 45.5795 121.019 45.5795 121.019C45.2994 121.49 45.1156 122.011 45.0389 122.553C44.9623 123.095 44.9941 123.646 45.1327 124.176C45.2712 124.705 45.5137 125.202 45.8463 125.639C46.1788 126.075 46.5949 126.441 47.0704 126.717C47.5438 126.997 48.0686 127.182 48.6143 127.259C49.16 127.336 49.7158 127.305 50.2493 127.167C50.7828 127.03 51.2834 126.788 51.7221 126.456C52.1607 126.124 52.5287 125.709 52.8046 125.235L73.7263 89.7632C75.4919 91.5069 77.6314 92.8314 79.9848 93.6377L38.3217 163.638C37.7588 164.588 37.598 165.721 37.8743 166.789C38.1507 167.857 38.8418 168.773 39.7962 169.335C40.4326 169.707 41.155 169.909 41.8933 169.921C42.6308 169.923 43.3561 169.734 43.9971 169.371C44.638 169.008 45.1723 168.485 45.5468 167.854L88.3076 95.9818L91.1092 96.6167L95.5819 97.626L64.9776 149.377C64.4205 150.331 64.2646 151.464 64.5438 152.531C64.8229 153.598 65.5146 154.512 66.4685 155.075C67.1021 155.451 67.8273 155.648 68.5655 155.645C69.3025 155.653 70.0286 155.468 70.6703 155.108C71.3119 154.748 71.8463 154.225 72.219 153.593L103.954 99.8725C106.304 100.623 108.603 101.526 110.835 102.575L89.3889 138.389C88.8873 139.337 88.7725 140.441 89.0683 141.471C89.3642 142.501 90.0479 143.379 90.9775 143.921C91.9072 144.464 93.0114 144.63 94.061 144.385C95.1105 144.14 96.0248 143.502 96.614 142.605L117.962 106.938C119.915 108.343 121.775 109.871 123.532 111.512L91.0109 166.454C90.7008 166.926 90.4903 167.456 90.3923 168.011C90.2942 168.567 90.3106 169.136 90.4404 169.685C90.5702 170.234 90.8107 170.751 91.1474 171.204C91.4842 171.658 91.91 172.039 92.3993 172.325C92.8886 172.61 93.4311 172.794 93.994 172.866C94.5569 172.937 95.1284 172.894 95.6741 172.739C96.2197 172.584 96.7281 172.321 97.1685 171.966C97.6088 171.61 97.972 171.169 98.236 170.67L129.627 117.666L132.608 120.921L134.755 123.298L92.0758 195.056C91.7657 195.528 91.5553 196.058 91.4572 196.614C91.3592 197.169 91.3755 197.738 91.5053 198.287C91.6351 198.836 91.8756 199.353 92.2124 199.807C92.5491 200.26 92.975 200.642 93.4642 200.927C93.9535 201.213 94.496 201.397 95.0589 201.468C95.6218 201.539 96.1934 201.496 96.739 201.341C97.2847 201.187 97.7931 200.923 98.2334 200.568C98.6738 200.212 99.0369 199.772 99.3009 199.273L140.931 129.273C142.736 130.828 144.861 131.973 147.157 132.626L126.055 168.521C125.765 168.993 125.573 169.517 125.489 170.064C125.405 170.61 125.431 171.168 125.566 171.704C125.701 172.24 125.941 172.744 126.274 173.187C126.607 173.63 127.025 174.003 127.505 174.283C127.984 174.564 128.514 174.747 129.065 174.822C129.617 174.897 130.177 174.863 130.715 174.72C131.252 174.578 131.756 174.331 132.196 173.993C132.637 173.656 133.005 173.234 133.28 172.754L162.77 122.761C169.578 111.162 171.483 97.3556 168.069 84.3641C164.654 71.3726 156.198 60.2548 144.552 53.4446ZM156.152 117.373L154.726 119.814C152.695 123.07 151.302 124.177 149.893 124.226C147.501 124.307 142.946 119.749 138.949 115.305C133.772 109.51 127.3 102.282 118.666 97.2679C110.032 92.2539 100.53 90.1214 92.9114 88.4283C87.0625 87.1423 80.804 85.6609 79.6735 83.5446C78.9035 82.1121 79.4769 79.8493 82.0163 75.6167C84.7703 70.7768 88.4567 66.5231 92.865 63.0988C97.2734 59.6744 102.317 57.1463 107.709 55.6588C113.101 54.1713 118.734 53.7536 124.288 54.4295C129.843 55.1055 135.208 56.8617 140.079 59.5981C144.95 62.3345 149.231 65.9974 152.678 70.3777C156.124 74.7579 158.668 79.7698 160.165 85.1271C161.662 90.4844 162.083 96.0822 161.402 101.601C160.722 107.12 158.955 112.451 156.201 117.291L156.152 117.373ZM133.329 77.6353C131.982 77.947 130.572 77.8547 129.277 77.3701C127.983 76.8856 126.862 76.0305 126.056 74.9131C125.251 73.7956 124.796 72.4659 124.751 71.092C124.706 69.7181 125.072 68.3618 125.802 67.1945C126.533 66.0272 127.595 65.1013 128.855 64.5339C130.116 63.9665 131.517 63.783 132.882 64.0066C134.247 64.2303 135.514 64.851 136.524 65.7904C137.534 66.7298 138.241 67.9456 138.556 69.2842C138.765 70.1735 138.795 71.0951 138.646 71.9962C138.496 72.8973 138.169 73.7603 137.684 74.5358C137.199 75.3114 136.564 75.9843 135.817 76.5161C135.07 77.048 134.225 77.4283 133.329 77.6353ZM113.8 79.4749C112.734 79.7146 111.621 79.6365 110.599 79.2503C109.577 78.864 108.693 78.1868 108.057 77.3035C107.421 76.4201 107.062 75.37 107.023 74.2845C106.985 73.199 107.271 72.1266 107.843 71.2014C108.416 70.2763 109.25 69.5396 110.243 69.0836C111.235 68.6277 112.34 68.4728 113.42 68.6383C114.501 68.8038 115.508 69.2824 116.316 70.0141C117.124 70.7458 117.696 71.698 117.962 72.7516C118.139 73.4617 118.171 74.1998 118.057 74.9225C117.942 75.6452 117.684 76.3379 117.296 76.9598C116.908 77.5817 116.399 78.1203 115.799 78.5438C115.199 78.9674 114.519 79.2673 113.8 79.426V79.4749ZM150.499 102.917C149.398 103.171 148.245 103.095 147.187 102.698C146.129 102.301 145.213 101.602 144.555 100.688C143.898 99.774 143.527 98.6868 143.491 97.5638C143.455 96.4408 143.755 95.3323 144.353 94.3786C144.951 93.4249 145.82 92.6688 146.85 92.2058C147.88 91.7429 149.026 91.5939 150.141 91.7777C151.257 91.9615 152.293 92.4698 153.117 93.2384C153.942 94.007 154.519 95.0014 154.775 96.0958C155.109 97.557 154.846 99.09 154.045 100.359C153.243 101.628 151.968 102.53 150.499 102.868V102.917ZM148.763 89.4865C147.905 89.695 147.005 89.6457 146.176 89.345C145.346 89.0443 144.626 88.5057 144.105 87.7975C143.584 87.0893 143.287 86.2434 143.251 85.367C143.215 84.4907 143.441 83.6234 143.902 82.8752C144.362 82.1269 145.036 81.5315 145.838 81.1643C146.639 80.7971 147.533 80.6747 148.404 80.8127C149.276 80.9507 150.087 81.3428 150.734 81.9393C151.381 82.5358 151.835 83.3099 152.039 84.1632C152.296 85.2936 152.097 86.479 151.485 87.4651C150.872 88.4512 149.895 89.1594 148.763 89.4377V89.4865ZM138.72 93.9144C138.089 94.0538 137.432 94.0051 136.829 93.7743C136.227 93.5436 135.706 93.1411 135.333 92.6174C134.96 92.0938 134.751 91.4723 134.732 90.831C134.714 90.1897 134.886 89.5571 135.228 89.0128C135.569 88.4685 136.066 88.0367 136.654 87.7716C137.241 87.5064 137.895 87.4198 138.533 87.5226C139.17 87.6254 139.762 87.913 140.236 88.3493C140.709 88.7855 141.042 89.3511 141.193 89.9749C141.295 90.3951 141.312 90.8313 141.242 91.2579C141.172 91.6846 141.018 92.0932 140.788 92.4599C140.557 92.8266 140.256 93.1441 139.901 93.3938C139.546 93.6435 139.144 93.8205 138.72 93.9144ZM101.873 71.8237C101.243 71.9622 100.587 71.913 99.9852 71.6823C99.3836 71.4516 98.8639 71.0496 98.4911 70.5268C98.1184 70.0039 97.9092 69.3834 97.8898 68.743C97.8703 68.1025 98.0415 67.4706 98.3819 66.9264C98.7222 66.3822 99.2166 65.9499 99.8031 65.6836C100.39 65.4172 101.042 65.3288 101.679 65.4293C102.316 65.5298 102.909 65.8148 103.383 66.2486C103.858 66.6824 104.193 67.2457 104.347 67.8679C104.538 68.7098 104.384 69.5924 103.92 70.322C103.457 71.0515 102.72 71.5682 101.873 71.7586V71.8237Z" fill="#001A72"></path><path d="M286.969 173.581H305.043L304.723 83.3676H305.043L337.194 173.581H353.189L385.34 83.3676H385.66L385.18 173.581H404.374V68.332H374.463L346.151 147.828H345.831L317.68 68.332H286.969V173.581Z" fill="#001A72"></path><path d="M497.519 131.833C497.519 107.2 483.283 93.9238 460.89 93.9238C435.937 93.9238 420.262 109.759 420.262 135.352C420.262 160.144 435.937 175.5 460.89 175.5C482.483 175.5 496.879 164.783 497.519 147.188H481.364C480.564 156.465 472.726 161.584 461.21 161.584C447.774 161.584 439.296 153.426 438.336 138.231H497.519V131.833ZM481.364 127.354H438.816C440.896 114.238 448.733 107.84 461.05 107.84C474.006 107.84 481.364 114.398 481.364 126.234V127.354Z" fill="#001A72"></path><path d="M513.035 173.154H530.95V134.605C530.95 117.65 539.107 108.213 551.264 108.213C561.981 108.213 567.899 115.251 567.899 126.447V173.154H585.814V133.965C585.814 117.49 593.811 108.213 606.288 108.213C617.004 108.213 622.603 115.251 622.603 126.767V173.154H640.517V122.769C640.517 104.214 630.44 92.8574 612.846 92.8574C597.81 92.8574 588.213 100.855 585.334 113.651H585.174C583.254 100.855 573.337 92.8574 557.982 92.8574C543.586 92.8574 533.989 101.335 530.47 114.931H530.31L530.95 94.137H513.035V173.154Z" fill="#001A72"></path><path d="M705.884 175.127C728.118 175.127 742.034 158.972 742.034 132.899C742.034 108.586 728.438 93.5509 705.724 93.5509C690.049 93.5509 679.172 100.909 675.813 112.425H675.653C675.813 108.586 675.973 102.188 675.973 98.8294V63H658.059V173.847H675.973C675.653 169.848 675.333 162.65 675.333 157.052H675.493C678.692 168.089 689.569 175.127 705.884 175.127ZM701.246 160.411C685.73 160.411 675.973 151.934 675.973 138.178V134.179C675.973 118.184 685.89 108.267 701.566 108.267C715.642 108.267 724.119 117.864 724.119 133.379C724.119 150.174 715.322 160.411 701.246 160.411Z" fill="#001A72"></path><path d="M757.23 173.154H775.145V138.604C775.145 119.729 783.623 108.213 797.219 108.213C807.775 108.213 812.894 114.451 812.894 127.727C812.894 131.406 812.574 135.405 812.254 138.444H828.569C828.889 135.085 829.369 128.687 829.369 123.728C829.369 104.054 819.932 92.8574 802.817 92.8574C786.502 92.8574 778.344 102.615 774.665 116.85H774.505L775.145 94.137H757.23V173.154Z" fill="#001A72"></path><path d="M869.411 174.433C886.846 174.433 896.283 167.395 898.842 155.719H899.002C899.002 162.117 898.522 169.315 898.202 173.154H916.117V125.008C916.117 104.214 902.041 92.8574 878.048 92.8574C855.495 92.8574 841.739 102.295 841.739 118.13C841.739 119.57 841.899 121.649 842.059 122.769H858.534C858.374 121.489 858.374 120.209 858.374 119.729C858.374 110.932 865.252 106.293 877.409 106.293C891.324 106.293 898.202 111.572 898.202 123.408V129.007H868.931C847.817 129.007 839.34 138.444 839.34 150.44C839.34 165.796 851.336 174.433 869.411 174.433ZM873.09 160.997C862.213 160.997 855.815 156.838 855.815 149.641C855.815 143.402 860.294 139.883 870.531 139.883H898.202V141.323C898.202 153.479 888.605 160.997 873.09 160.997Z" fill="#001A72"></path><path d="M933.176 173.154H951.09V134.925C951.09 117.65 961.008 108.213 976.683 108.213C990.919 108.213 997.957 115.251 997.957 127.727V173.154H1015.87V123.728C1015.87 104.214 1003.55 92.8574 983.561 92.8574C965.166 92.8574 954.929 101.015 950.611 115.251H950.451L951.09 94.137H933.176V173.154Z" fill="#001A72"></path><path d="M1109.6 131.833C1109.6 107.2 1095.37 93.9238 1072.98 93.9238C1048.02 93.9238 1032.35 109.759 1032.35 135.352C1032.35 160.144 1048.02 175.5 1072.98 175.5C1094.57 175.5 1108.96 164.783 1109.6 147.188H1093.45C1092.65 156.465 1084.81 161.584 1073.3 161.584C1059.86 161.584 1051.38 153.426 1050.42 138.231H1109.6V131.833ZM1093.45 127.354H1050.9C1052.98 114.238 1060.82 107.84 1073.14 107.84C1086.09 107.84 1093.45 114.398 1093.45 126.234V127.354Z" fill="#001A72"></path></svg>