<?xml version="1.0" encoding="UTF-8" standalone="no"?>
<svg
   xmlns:dc="http://purl.org/dc/elements/1.1/"
   xmlns:cc="http://creativecommons.org/ns#"
   xmlns:rdf="http://www.w3.org/1999/02/22-rdf-syntax-ns#"
   xmlns:svg="http://www.w3.org/2000/svg"
   xmlns="http://www.w3.org/2000/svg"
   xmlns:xlink="http://www.w3.org/1999/xlink"
   xmlns:sodipodi="http://sodipodi.sourceforge.net/DTD/sodipodi-0.dtd"
   xmlns:inkscape="http://www.inkscape.org/namespaces/inkscape"
   version="1.1"
   id="Layer_1"
   x="0px"
   y="0px"
   width="333.56516"
   height="99.550423"
   viewBox="0 0 333.56516 99.550423"
   enable-background="new 0 0 100 100"
   xml:space="preserve"
   sodipodi:docname="logotype-vector-white-text-dot-io.svg"
   inkscape:version="1.0.2 (e86c870879, 2021-01-15)"><sodipodi:namedview
   pagecolor="#000000"
   bordercolor="#666666"
   borderopacity="1"
   objecttolerance="10"
   gridtolerance="10"
   guidetolerance="10"
   inkscape:pageopacity="0"
   inkscape:pageshadow="2"
   inkscape:window-width="1920"
   inkscape:window-height="1080"
   id="namedview863"
   showgrid="false"
   inkscape:zoom="2.23"
   inkscape:cx="122.92103"
   inkscape:cy="65.401873"
   inkscape:window-x="0"
   inkscape:window-y="399"
   inkscape:window-maximized="0"
   inkscape:current-layer="Layer_1"
   inkscape:document-rotation="0"
   fit-margin-top="0"
   fit-margin-left="0"
   fit-margin-right="0"
   fit-margin-bottom="0" /><metadata
   id="metadata997"><rdf:RDF><cc:Work
       rdf:about=""><dc:format>image/svg+xml</dc:format><dc:type
         rdf:resource="http://purl.org/dc/dcmitype/StillImage" /><dc:title></dc:title></cc:Work></rdf:RDF></metadata><defs
   id="defs995" />
<path
   fill="#eeeeea"
   d="m 6.2296844,99.55042 h -0.689 c 0,0 -0.139,-7.739 -0.565,-11.81 -1.009,-9.624 -4.82300003,-18.04 -4.97100003,-28.226 -0.252,-17.391 9.68700003,-34.623 24.11499963,-34.623 4.208,0 6.744,0.393 8.638,1.181 -0.936,-2.363 -3.076,-4.577 -6.595,-7.481 -3.9,-3.218 -11.124,-5.158 -11.124,-10.5320002 0,-5.151 6.473,-7.81199999 10.778,-7.75099999 5.884,0.083 9.029,4.05699999 10.906,9.77900019 1.551,4.725 1.482,13.578 1.482,13.578 0,0 8.268,-10.4 18.621,-16.4610002 16.02,-9.376 27.783,-8.02799999 30.725,-4.726 1.547,1.736 1.32,6.093 0.334,11.1430002 -0.947,4.866 -3.08,8.622 -6.178,9.399 -4.018,1.009 -18.803,1.032 -24.117,1.083 -10.236,0.099 -16.885,5.612 -16.885,5.612 0,0 11.176,5.592 10.733,18.062 -0.982,27.707 -25.772,35.393 -35.241,42.938 -4.972,3.965 -9.9669996,8.835 -9.9669996,8.835 z"
   id="path942" />
<path
   fill="#253838"
   d="m 6.6466844,98.07542 c 0,0 -0.133,-5.509 -0.196,-7.58 -0.295,-9.596 -5.121,-21.704 -5.117,-31.301 0.005,-15.121 8.7269996,-33.114 23.8689996,-32.777 6.09,0.136 24.956,4.424 24.956,22.195 0,10.484 -7.053,21.167 -12.456,26.232 -7.354,6.896 -16.536,11.122 -20.276,13.879 -5.061,3.731 -7.9669996,6.588 -10.7799996,9.352 z"
   id="path944" />
<path
   fill="#253838"
   d="m 34.061684,26.41342 c -0.526,-3.223 -3.476,-5.768 -8.317,-9.613 -3.691,-2.933 -9.499,-4.557 -9.499,-8.6420002 0,-4.434 4.281,-6.838 9.203,-6.739 6.995,0.14 11.517,5.658 11.517,24.3580002 -0.002,1.828 -2.72,1.773 -2.904,0.636 z"
   id="path946" />
<path
   fill="#253838"
   d="m 37.358684,27.99142 c 0,-3.275 10.354,-12.916 17.661,-17.964 7.295,-5.0390002 15.025,-8.1610002 22.551,-8.5190002 3.361,-0.159 7.734,0.352 8.812,1.876 1.303,1.846 1.062,4.607 0.588,8.0210002 -0.809,5.821 -2.963,9.302 -5.412,10.138 -3.354,1.145 -11.945,0.882 -18.852,0.936 -14.096,0.108 -19.655,3.849 -23.33,6.545 -1.205,0.885 -2.018,-1.033 -2.018,-1.033 z"
   id="path948" />
<g
   id="g962"
   transform="translate(-5.7073156,-0.10058019)">
	<defs
   id="defs951">
		<path
   id="SVGID_1_"
   d="m 14.715,92.445 c 0,0 -0.118,-4.837 -0.174,-6.654 -0.205,-6.692 -4.511,-16.41 -4.508,-27.055 0.006,-15.714 8.996,-29.502 21.076,-29.234 7.38,0.164 21.881,4.887 21.881,19.414 0,9.202 -5.961,18.173 -10.512,22.814 -5.712,5.824 -17.102,12.172 -18.705,13.354 -4.443,3.276 -6.59,4.936 -9.058,7.361 z" />
	</defs>
	<clipPath
   id="SVGID_2_">
		<use
   xlink:href="#SVGID_1_"
   overflow="visible"
   id="use953"
   x="0"
   y="0"
   width="100%"
   height="100%" />
	</clipPath>
	<polygon
   clip-path="url(#SVGID_2_)"
   fill="#ee5ead"
   points="42.302,96.971 8.046,93.605 10.033,29.499 58.549,28.979 "
   id="polygon956" />
	<path
   clip-path="url(#SVGID_2_)"
   fill="#ee389e"
   d="m 8.418,63.231 c 17.691,-3.049 27.883,-9.079 44.001,-20.301 5.834,-4.059 1.773,27.314 1.773,27.314 L 5.687,84.272 Z"
   id="path958" />
	<path
   clip-path="url(#SVGID_2_)"
   fill="#c3388b"
   d="m 10.633,76.152 c 16.241,0.295 41.418,-11.146 42.01,-33.442 0.115,-4.393 5.24,19.784 5.24,19.784 L 11.519,99.036 Z"
   id="path960" />
</g>
<path
   fill="#25eed2"
   d="m 26.594684,13.96642 c -2.506,-1.991 -7.348,-3.058 -7.348,-5.8320002 0,-2.102 3.239,-4.119 6.127,-4.06 6.756,0.135 8.066,10.0620002 8.569,16.2140002 -2.297,-2.75 -4.446,-4.017 -7.348,-6.322 z"
   id="path964" />
<g
   id="g976"
   transform="translate(-5.7073156,-0.10058019)">
	<defs
   id="defs967">
		<path
   id="SVGID_3_"
   d="M 50.896,22.344 C 55.133,17.338 70.523,5.41 81.729,4.396 c 2.586,-0.234 6.994,-0.158 7.826,1.018 0.156,0.226 0.457,2.824 -0.076,6.659 -0.562,4.069 -2.857,6.391 -2.998,6.438 -1.883,0.644 -9.754,0.59 -15.799,0.797 -9.928,0.339 -12.725,0.812 -19.786,3.036 z" />
	</defs>
	<clipPath
   id="SVGID_4_">
		<use
   xlink:href="#SVGID_3_"
   overflow="visible"
   id="use969"
   x="0"
   y="0"
   width="100%"
   height="100%" />
	</clipPath>
	<polygon
   clip-path="url(#SVGID_4_)"
   fill="#25eed2"
   points="86.379,2.304 79.834,29.127 45.427,28.03 43.642,16.427 "
   id="polygon972" />
	<path
   clip-path="url(#SVGID_4_)"
   fill="#25ccb5"
   d="M 68.559,21.309 C 76.123,16.393 83.41,6.751 85.143,3.444 c 1.084,-2.067 7.834,1.5 7.834,1.5 l -6.08,18.789 z"
   id="path974" />
</g>
<path
   fill="#253838"
   d="m 38.255684,48.21942 2.836,0.611 c -0.208,2.65 -2.603,4.778 -5.438,4.778 -2.99,0 -5.481,-2.437 -5.481,-5.39 0,-2.953 1.845,-5.684 5.462,-5.684 3.618,0 5.5,2.879 5.5,5.684 0,0.226 -0.024,0.839 -0.184,1.126 -0.323,-0.032 -2.695,-0.88 -2.695,-1.125 0,-1.623 -1.002,-2.73 -2.602,-2.73 -1.477,0 -2.621,1.205 -2.621,2.583 0,1.494 1.175,2.62 2.621,2.62 1.624,0 2.602,-1.292 2.602,-2.473 z"
   id="path978" />
<path
   fill="#253838"
   d="m 18.914684,57.74342 2.837,0.611 c -0.208,2.65 -2.604,4.776 -5.439,4.776 -2.99,0 -5.482,-2.436 -5.482,-5.388 0,-2.953 1.846,-5.684 5.463,-5.684 3.617,0 5.5,2.878 5.5,5.684 0,0.226 -0.025,0.839 -0.184,1.125 -0.324,-0.03 -2.695,-0.879 -2.695,-1.124 0,-1.626 -1.003,-2.731 -2.602,-2.731 -1.477,0 -2.621,1.206 -2.621,2.584 0,1.495 1.175,2.619 2.621,2.619 1.624,-0.001 2.602,-1.29 2.602,-2.472 z"
   id="path980" />
<path
   fill="#253838"
   d="m 13.736684,73.13642 -2.761,-0.889 c 0.468,-2.618 3.062,-4.496 5.884,-4.216 2.975,0.295 5.213,2.966 4.92,5.904 -0.292,2.938 -2.398,5.473 -5.998,5.115 -3.601,-0.357 -5.188,-3.409 -4.911,-6.198 0.022,-0.226 0.108,-0.835 0.295,-1.104 0.32,0.067 2.596,1.144 2.571,1.388 -0.16,1.617 0.728,2.816 2.319,2.976 1.47,0.146 2.728,-0.94 2.863,-2.312 0.148,-1.487 -0.909,-2.725 -2.348,-2.868 -1.615,-0.159 -2.716,1.029 -2.834,2.204 z"
   id="path982" />
<path
   fill="#253838"
   d="m 47.228684,57.29942 c -1.846,-2.972 -6.093,-6.053 -8.566,-6.349 -0.66,-0.078 0.497,-2.834 1.034,-2.834 1.771,0 7.737,3.975 8.86,6.453 0.371,0.81 -1.328,2.73 -1.328,2.73 z"
   id="path984" />
<path
   fill="#253838"
   d="m 38.332684,71.25242 c -3.73,-6.643 -14.361,-11.22 -18.643,-11.294 -1.033,-0.018 0,-2.806 0.812,-2.806 3.765,0 16.36,4.887 19.859,12.182 0.394,0.823 -2.028,1.918 -2.028,1.918 z"
   id="path986" />
<path
   fill="#253838"
   d="m 4.3346844,70.51542 c 2.504,-1.043 5.9799996,-1.182 8.7999996,0 0.797,0.333 -0.487,3.056 -1.123,2.761 -2.0659996,-0.961 -4.5769996,-0.8 -6.7169996,0.029 -0.632,0.244 -0.96,-2.79 -0.96,-2.79 z"
   id="path988" />
<path
   fill="#eeeeea"
   d="m 20.403684,33.12742 c 2.928,0 5.25,2.107 5.25,5.003 0,2.708 -1.683,5.38 -5.176,5.38 -3.495,0 -5.262,-2.742 -5.262,-5.253 0,-2.966 2.358,-5.13 5.188,-5.13 z"
   id="path990" />
<text
   xml:space="preserve"
   style="font-style:normal;font-variant:normal;font-weight:600;font-stretch:normal;font-size:41.3333px;line-height:1.25;font-family:'Space Grotesk';-inkscape-font-specification:'Space Grotesk, Semi-Bold';font-variant-ligatures:normal;font-variant-caps:normal;font-variant-numeric:normal;font-variant-east-asian:normal;white-space:pre;inline-size:277.891;fill:#ffffff;fill-opacity:1;stroke:none;stroke-opacity:1"
   x="112.08711"
   y="49.997265"
   id="text867"
   transform="translate(-51.280766,24.856147)"><tspan
     x="112.08711"
     y="49.997265"><tspan
       style="font-style:normal;font-variant:normal;font-weight:600;font-stretch:normal;font-size:41.3333px;font-family:'Space Grotesk';-inkscape-font-specification:'Space Grotesk, Semi-Bold';font-variant-ligatures:normal;font-variant-caps:normal;font-variant-numeric:normal;font-variant-east-asian:normal;fill:#ffffff;stroke:none;stroke-opacity:1">UNDERJORD.IO</tspan></tspan></text></svg>
